<svg xmlns="http://www.w3.org/2000/svg" width="16" height="16">
  <g fill="#2e3436">
    <path d="m4.06 1 2 2H12a1 1 0 0 1 1 1v5.94l1.58 1.58A2.98 2.98 0 0 0 15 10V4a3 3 0 0 0-3-3zm-1.66.47A2.98 2.98 0 0 0 1 4v1h2V4a1 1 0 0 1 .95-.99zM9 11v2h3c.56 0 1.07-.16 1.51-.42L11.95 11zm0 3.02V16h3c1 0 1-1 1-1s-.05-.84-4-.97z"/>
    <path style="marker:none" d="M2.28 6C1.57 6 1 6.57 1 7.28v7.44c0 .7.57 1.28 1.28 1.28h4.44c.7 0 1.28-.57 1.28-1.28V7.28L6.72 6H4zm.13 1H3a1 1 0 0 0 1 1h1a1 1 0 0 0 1-1h.59a.4.4 0 0 1 .41.41v6.16a.4.4 0 0 1-.41.41H2.41a.4.4 0 0 1-.41-.4V7.4A.4.4 0 0 1 2.41 7z" opacity=".5"/>
    <path d="M1.5.5.44 1.56l14 14 1.06-1.06z"/>
  </g>
</svg>
