<svg xmlns="http://www.w3.org/2000/svg" width="16" height="16">
  <g fill="#2e3436">
    <path d="M4 1a3 3 0 0 0-3 3v1h2V4a1 1 0 0 1 1-1h8a1 1 0 0 1 1 1v6a1 1 0 0 1-1 1H9v2h3a3 3 0 0 0 3-3V4a3 3 0 0 0-3-3zm5 13.03V16h3c1 0 1-1 1-1s-.05-.84-4-.97z"/>
    <path d="M2.28 6C1.57 6 1 6.57 1 7.28v7.44c0 .7.57 1.28 1.28 1.28h4.44c.7 0 1.28-.57 1.28-1.28V7.28C8 6.58 7.43 6 6.72 6H4zm.13 1H3a1 1 0 0 0 1 1h1a1 1 0 0 0 1-1h.59a.4.4 0 0 1 .41.41v6.16a.4.4 0 0 1-.41.41H2.41a.4.4 0 0 1-.41-.4V7.4A.4.4 0 0 1 2.41 7z" style="marker:none"/>
  </g>
</svg>
